<svg id="Layer_1" data-name="Layer 1" xmlns="http://www.w3.org/2000/svg" viewBox="0 0 1559.26 1154.24"><defs><style>.cls-1{fill:#161742;}.cls-2{fill:#eb2c33;}</style></defs><polygon class="cls-1" points="357.21 960.96 357.21 990.15 423.12 990.7 423.07 1152.98 453.79 1152.98 453.85 990.7 526.11 990.77 526.11 961.59 357.21 960.96"/><polygon class="cls-1" points="738.28 1123.86 738.28 961.25 707.55 961.25 707.55 1153.04 827.95 1153.04 827.95 1123.86 738.28 1123.86"/><polygon class="cls-1" points="1194.48 961.37 1194.48 1079.4 1071.2 961.37 1071.2 1152.98 1101.92 1152.98 1101.92 1025.6 1225.2 1154.24 1225.2 961.37 1194.48 961.37"/><polygon class="cls-1" points="1358.69 961.37 1321.44 1031.76 1284.31 961.37 1248.95 961.37 1306.03 1066.17 1306.15 1152.98 1336.86 1152.98 1336.75 1066.17 1394.06 961.37 1358.69 961.37"/><path class="cls-1" d="M1514.24,1093.59l0,0c-5.55-1.84-11.68.06-15.85,5.19L1435,1206l-63.6-107.59a14.34,14.34,0,0,0-15.66-4.84,14,14,0,0,0-9.37,13.22v170.77h27.86V1157.32l50.41,84.61a11.65,11.65,0,0,0,2.39,2.53l-.23,1.14,2,.81a14.28,14.28,0,0,0,5.46,1.13,3,3,0,0,0,.69-.08l.81.08a14.23,14.23,0,0,0,5.45-1.13l1.92-1-.17-.91a11.88,11.88,0,0,0,2.51-2.68l50.31-84.46v120.26h27.86V1106.81A14,14,0,0,0,1514.24,1093.59Z" transform="translate(-1346.35 -131.54)"/><path class="cls-1" d="M1659.92,1093.18l-11.71-.25-12,.25-62.71,143.36-24,44.69,2.7,1.08a29,29,0,0,0,10.88,2.11,28.59,28.59,0,0,0,23.9-12.71c9.47-14.38,28.31-33.33,64.22-42a95.81,95.81,0,0,1,40.93.35l14.78,30.58c6.4,13.25,20.4,21.81,35.66,21.81h4.11Zm19.61,110.16a125.47,125.47,0,0,0-33,2.28,152.64,152.64,0,0,0-33.86,11.3l37.25-75.65Z" transform="translate(-1346.35 -131.54)"/><path class="cls-1" d="M2314.52,1092.75l-11.71-.25-12,.24-67.79,144-24,44.68,2.71,1.09a29.17,29.17,0,0,0,10.87,2.1,28.55,28.55,0,0,0,23.9-12.71c9.47-14.38,28.31-33.33,64.22-41.95a95.86,95.86,0,0,1,40.94.35l14.77,30.58c6.4,13.25,20.4,21.81,35.67,21.81h4.11Zm14.53,110.75a125.09,125.09,0,0,0-33,2.29,152.15,152.15,0,0,0-33.87,11.29l37.25-75.65Z" transform="translate(-1346.35 -131.54)"/><path class="cls-1" d="M2824.1,1093l-11.81-.24-11.91.24-67.93,143.64-24,44.68,2.71,1.09a29.17,29.17,0,0,0,10.87,2.1,28.55,28.55,0,0,0,23.91-12.71c9.47-14.38,28.31-33.34,64.22-41.95a96,96,0,0,1,40.93.35l14.78,30.58c6.4,13.25,20.39,21.81,35.66,21.81h4.11Zm14.4,110.43a124.64,124.64,0,0,0-33,2.29,151.9,151.9,0,0,0-33.86,11.29l37.25-75.65Z" transform="translate(-1346.35 -131.54)"/><path class="cls-1" d="M1997,1092.79V1211.3c0,14.11-2.22,24.31-6.62,30.32-6.61,9.08-15.74,13.49-27.89,13.49s-21.16-4.41-27.76-13.45c-4.4-6.24-6.64-16.46-6.64-30.36V1092.79h-30.72V1218.3c0,18.43,5.85,33.84,17.38,45.83,12.85,13.31,28.92,20.06,47.74,20.06s34.93-6.75,47.86-20.07c11.53-12,17.38-27.4,17.38-45.82V1092.79Z" transform="translate(-1346.35 -131.54)"/><path class="cls-2" d="M2353.13,660.56V502.5l-3.11-1c-5.15,6.25-10.36,12.45-15.44,18.75-53.95,66.87-107.5,134.08-162.3,200.26-6.84,8.27-19.78,12.56-30.73,16.21-23.62,7.88-23.93,7.29-39.27-11.72q-85.77-106.2-171.45-212.47c-3.12-3.87-6.4-7.6-12-14.2V790.11c-16.2,2.69-31,5.9-45.93,7.47-32.22,3.38-64.59,5.38-96.78,9.07-12.84,1.47-19.21-3.14-21.25-15-3.2-18.54-8.65-37.13-8.71-55.71-.63-196.66-.39-393.33-.36-590,0-4.09.36-8.18.62-13.78,27-1.05,52.59,4,74.62,17.45,21.39,13,43.07,28.09,59.08,46.93,82.57,97.18,163.35,195.86,244.77,294,3.17,3.81,6.42,7.56,10.44,12.3,3.78-3.94,6.74-6.66,9.29-9.72Q2267.4,345.58,2390,197.88c30.6-37,68.94-59.37,116.81-65.13,5.84-.7,11.75-.75,19.36-1.21v16.31q0,210.5.28,421c0,10.93-3.28,16.67-13.12,21-49.84,22.18-99.43,44.93-149.14,67.39C2361.42,658.55,2358.29,659.07,2353.13,660.56Z" transform="translate(-1346.35 -131.54)"/><path class="cls-1" d="M1638.2,780.25c31.73,32,69.41,39.44,107.82,43.68,87,9.61,173.11-.35,258.29-17Q2329,743.62,2619.45,585.25c50.82-27.85,98.92-60.09,139.55-102,19.76-20.41,37.05-42.56,44.09-70.93,6.95-28-.8-49.76-24.44-66.6-26.49-18.87-57.25-26.78-88.8-28.61-36.38-2.12-73-.5-109.48-1.58,76.45-12.74,153-22.57,230.23-6.67,25.67,5.29,49.83,14.4,69.53,32.55,25.61,23.61,31,50.33,15.38,81.29-18,35.53-47.12,61.41-77.77,85.5-82.06,64.5-174.17,111.92-269,154.16-16.82,7.49-23.87,15.4-22.54,34.24a331.52,331.52,0,0,1-2.09,66.27c-10.51,79.52-83.06,143.89-163,146.07a75.56,75.56,0,0,1-8-.74V740.8C2210.92,789.36,2067.8,827,1918.56,843.47v65.19c-25.72.52-49.46-3.63-70.58-15.17-18.86-10.31-35.47-24.64-53.53-36.5-6.89-4.52-14.72-8.5-22.68-10.34-27.85-6.44-56.46-10.09-83.77-18.18C1665.9,821.93,1647.58,808.05,1638.2,780.25Z" transform="translate(-1346.35 -131.54)"/></svg>